<?xml version="1.0" encoding="utf-8"?>
<!-- Generator: Adobe Illustrator 15.1.0, SVG Export Plug-In . SVG Version: 6.00 Build 0)  -->
<!DOCTYPE svg PUBLIC "-//W3C//DTD SVG 1.1 Tiny//EN" "http://www.w3.org/Graphics/SVG/1.1/DTD/svg11-tiny.dtd">
<svg version="1.1" baseProfile="tiny" id="レイヤー_1"
	 xmlns="http://www.w3.org/2000/svg" xmlns:xlink="http://www.w3.org/1999/xlink" x="0px" y="0px" width="569px" height="661px"
	 viewBox="0 0 569 661" overflow="inherit" xml:space="preserve">
<path fill="#8B59E4" d="M219.822,126.224l14.598-93.161l73.523,59.256L219.822,126.224z"/>
<path fill="#8B59E4" d="M514.889,496.345l-26.752-78.353l80.539,16.438L514.889,496.345z"/>
<path fill="#8B59E4" d="M343.872,526.454l-93.82-33.438l75.691-63.706L343.872,526.454z"/>
<path fill="#8B59E4" d="M514.428,185.623l-85.084,96.752l-40.815-120.881L514.428,185.623z"/>
<path fill="#8B59E4" d="M362.971,334.188l-64.141-51.223l76.03-30.37L362.971,334.188z"/>
<path fill="#8B59E4" d="M70.107,628.64L0.725,660.088l7.8-75.181L70.107,628.64z"/>
<path fill="#8B59E4" d="M551.507,72.316L483.01,46.401l56.519-45.919L551.507,72.316z"/>
<path fill="#8B59E4" d="M198.956,603.814l-119.628-8.938l67.424-99.125L198.956,603.814z"/>
</svg>
