<?xml version="1.0" encoding="utf-8"?>
<!-- Generator: Adobe Illustrator 15.1.0, SVG Export Plug-In . SVG Version: 6.00 Build 0)  -->
<!DOCTYPE svg PUBLIC "-//W3C//DTD SVG 1.1 Tiny//EN" "http://www.w3.org/Graphics/SVG/1.1/DTD/svg11-tiny.dtd">
<svg version="1.1" baseProfile="tiny" id="レイヤー_1"
	 xmlns="http://www.w3.org/2000/svg" xmlns:xlink="http://www.w3.org/1999/xlink" x="0px" y="0px" width="10px" height="5px"
	 viewBox="0 0 10 5" overflow="inherit" xml:space="preserve">
<path d="M9.374,0H0.625C0.456,0,0.309,0.055,0.186,0.165C0.062,0.274,0,0.405,0,0.556c0,0.15,0.062,0.281,0.186,0.39L4.56,4.833
	C4.684,4.943,4.83,4.998,5,4.998c0.169,0,0.315-0.055,0.439-0.165l4.375-3.887c0.124-0.109,0.186-0.24,0.186-0.39
	c0-0.151-0.062-0.281-0.186-0.391C9.689,0.055,9.543,0,9.374,0L9.374,0z"/>
</svg>
