<svg xmlns="http://www.w3.org/2000/svg" width="50" height="30" viewBox="0 0 50 30">
  <defs>
    <style>
      .cls-1 {
        fill: #fff;
        fill-rule: evenodd;
      }
    </style>
  </defs>
  <path id="fa-angle-up" class="cls-1" d="M1174.51,2787.54l-23.36-24.04a1.55,1.55,0,0,0-1.15-.51,1.566,1.566,0,0,0-1.15.51l-23.36,24.04a1.666,1.666,0,0,0,0,2.38l2.51,2.58a1.566,1.566,0,0,0,1.15.51,1.55,1.55,0,0,0,1.15-.51l19.7-20.28,19.7,20.28a1.566,1.566,0,0,0,1.15.51,1.55,1.55,0,0,0,1.15-.51l2.51-2.58a1.666,1.666,0,0,0,0-2.38h0Z" transform="translate(-1125 -2763)"/>
</svg>
