<?xml version="1.0" encoding="utf-8"?>
<!-- Generator: Adobe Illustrator 15.1.0, SVG Export Plug-In . SVG Version: 6.00 Build 0)  -->
<!DOCTYPE svg PUBLIC "-//W3C//DTD SVG 1.1 Tiny//EN" "http://www.w3.org/Graphics/SVG/1.1/DTD/svg11-tiny.dtd">
<svg version="1.1" baseProfile="tiny" id="レイヤー_1"
	 xmlns="http://www.w3.org/2000/svg" xmlns:xlink="http://www.w3.org/1999/xlink" x="0px" y="0px" width="803px" height="927px"
	 viewBox="0 0 803 927" overflow="inherit" xml:space="preserve">
<path fill="#F85D52" d="M112.523,86.097l-67.002-59.66l86.058-26.33L112.523,86.097z"/>
<path d="M453.066,862.961l-9.32-32.147l32.414,7.977L453.066,862.961z"/>
<path d="M802.1,700.531l-63.309,19.581l14.479-64.664L802.1,700.531z"/>
<path d="M638.588,841.612l-90.372-20.139l62.573-68.44L638.588,841.612z"/>
<path d="M10.274,776.998L0.953,744.85l32.414,7.977L10.274,776.998z"/>
<path d="M171.382,793.153l-60.078-27.954l54.173-38.216L171.382,793.153z"/>
<path d="M327.368,859.311l-90.372-20.14l62.573-68.44L327.368,859.311z"/>
<path d="M130.205,909.244l-92.406,17.513l31.084-89.034L130.205,909.244z"/>
</svg>
