<?xml version="1.0" encoding="utf-8"?>
<!-- Generator: Adobe Illustrator 15.1.0, SVG Export Plug-In . SVG Version: 6.00 Build 0)  -->
<!DOCTYPE svg PUBLIC "-//W3C//DTD SVG 1.1 Tiny//EN" "http://www.w3.org/Graphics/SVG/1.1/DTD/svg11-tiny.dtd">
<svg version="1.1" baseProfile="tiny" id="レイヤー_1"
	 xmlns="http://www.w3.org/2000/svg" xmlns:xlink="http://www.w3.org/1999/xlink" x="0px" y="0px" width="695px" height="532px"
	 viewBox="0 0 695 532" overflow="inherit" xml:space="preserve">
<path d="M155.998,197.899l-52.552-47.733l68.047-21.732L155.998,197.899z"/>
<path d="M192.92,500.864L123.78,485.36l48.544-52.611L192.92,500.864z"/>
<path d="M694.93,118.997l-53.774,46.302l-12.898-70.536L694.93,118.997z"/>
<path d="M627.447,486.765l-69.141-15.503l48.544-52.611L627.447,486.765z"/>
<path fill="#5FE48B" d="M537.445,411.662l66.53,98.628L489.102,499.51L537.445,411.662z"/>
<path fill="#5FE48B" d="M694.972,74.888l-135.87,73.061L589.026,0.004L694.972,74.888z"/>
<path fill="#5FE48B" d="M597.18,242.363l11.935,60.337l-73.266-11.706L597.18,242.363z"/>
<path fill="#5FE48B" d="M175.788,135.509l-129.58-16.448l85.36-69.485L175.788,135.509z"/>
<path fill="#5FE48B" d="M31.414,469.268l124.65-36.776l-47.57,99.431L31.414,469.268z"/>
<path fill="#5FE48B" d="M67.153,326.27l41.922,76.767L0.374,368.323L67.153,326.27z"/>
</svg>
