<?xml version="1.0" encoding="utf-8"?>
<!-- Generator: Adobe Illustrator 15.1.0, SVG Export Plug-In . SVG Version: 6.00 Build 0)  -->
<!DOCTYPE svg PUBLIC "-//W3C//DTD SVG 1.1 Tiny//EN" "http://www.w3.org/Graphics/SVG/1.1/DTD/svg11-tiny.dtd">
<svg version="1.1" baseProfile="tiny" id="レイヤー_1"
	 xmlns="http://www.w3.org/2000/svg" xmlns:xlink="http://www.w3.org/1999/xlink" x="0px" y="0px" width="622px" height="931px"
	 viewBox="0 0 622 931" overflow="inherit" xml:space="preserve">
<path fill="#5FE48B" d="M320.452,0.921l48.365,46.834l-54.526,1.211L320.452,0.921z"/>
<path fill="#5FE48B" d="M428.331,42.992l60.782-28.707l-18.328,51.635L428.331,42.992z"/>
<path fill="#5FE48B" d="M545.654,53.909l62.679,24.235l-49.764,22.436L545.654,53.909z"/>
<path fill="#5FE48B" d="M551.903,167.919l69.92,16.445l-37.188,23.634L551.903,167.919z"/>
<path fill="#5FE48B" d="M560.823,296.876l-63.595,20.178l42.161-58.331L560.823,296.876z"/>
<path fill="#5FE48B" d="M119.646,584.367l16.423-60.815l25.649,44.265L119.646,584.367z"/>
<path fill="#5FE48B" d="M1.357,666.952l59.714-31.006l-16.154,52.133L1.357,666.952z"/>
<path fill="#5FE48B" d="M57.732,875.014l78.4,23.908l-58.623,31.567L57.732,875.014z"/>
<path fill="#5FE48B" d="M0.443,755.805l78.4,23.909l-58.623,31.566L0.443,755.805z"/>
<path fill="#5FE48B" d="M423.567,356.475l62.925-1.807l-34.953,37.346L423.567,356.475z"/>
<path fill="#5FE48B" d="M303.893,427.8l59.714-31.007l-16.153,52.134L303.893,427.8z"/>
<path fill="#5FE48B" d="M204.098,446.844l78.4,23.909l-58.623,31.567L204.098,446.844z"/>
</svg>
