<?xml version="1.0" encoding="utf-8"?>
<!-- Generator: Adobe Illustrator 15.1.0, SVG Export Plug-In . SVG Version: 6.00 Build 0)  -->
<!DOCTYPE svg PUBLIC "-//W3C//DTD SVG 1.1 Tiny//EN" "http://www.w3.org/Graphics/SVG/1.1/DTD/svg11-tiny.dtd">
<svg version="1.1" baseProfile="tiny" id="レイヤー_1"
	 xmlns="http://www.w3.org/2000/svg" xmlns:xlink="http://www.w3.org/1999/xlink" x="0px" y="0px" width="648px" height="936px"
	 viewBox="0 0 648 936" overflow="inherit" xml:space="preserve">
<path fill="#F373B3" d="M598.615,860.927l43.374,75.057h-86.747L598.615,860.927z"/>
<path fill="#F373B3" d="M547.289,772.042l43.374,75.057h-86.747L547.289,772.042z"/>
<path fill="#F373B3" d="M499.384,860.927l43.373,75.057h-86.747L499.384,860.927z"/>
<path fill="#F373B3" d="M110.412,441.406l33.579,58.581H76.832L110.412,441.406z"/>
<path fill="#F373B3" d="M70.675,372.033l33.579,58.581H37.096L70.675,372.033z"/>
<path fill="#F373B3" d="M33.588,441.406l33.579,58.581H0.008L33.588,441.406z"/>
<path fill="#F373B3" d="M617.061,63.365l30.839,53.404h-61.678L617.061,63.365z"/>
<path fill="#F373B3" d="M580.566,0.122l30.839,53.404h-61.679L580.566,0.122z"/>
<path fill="#F373B3" d="M546.505,63.365l30.839,53.404h-61.679L546.505,63.365z"/>
</svg>
